<?xml version="1.0" encoding="UTF-8" standalone="no"?>
<svg width="431px" height="94px" viewBox="0 0 431 94" version="1.1" xmlns="http://www.w3.org/2000/svg" xmlns:xlink="http://www.w3.org/1999/xlink" xmlns:sketch="http://www.bohemiancoding.com/sketch/ns">
    <!-- Generator: Sketch 3.3.2 (12043) - http://www.bohemiancoding.com/sketch -->
    <title>logo_white</title>
    <desc>Created with Sketch.</desc>
    <defs></defs>
    <g id="Page-1" stroke="none" stroke-width="1" fill="none" fill-rule="evenodd" sketch:type="MSPage">
        <g id="logo_white" sketch:type="MSLayerGroup" fill="#FFFFFF">
            <path d="M27.904,93.694 C13.806,93.694 0.06,83.59 0.06,60.68 C0.06,37.771 13.806,27.784 27.904,27.784 C34.836,27.784 40.24,29.547 44.117,32.131 L39.887,41.413 C37.303,39.533 33.426,38.358 29.549,38.358 C21.09,38.358 13.336,45.055 13.336,60.563 C13.336,76.071 21.325,82.885 29.549,82.885 C33.426,82.885 37.303,81.71 39.887,79.831 L44.117,89.347 C40.122,92.049 34.836,93.694 27.904,93.694" id="Fill-1" sketch:type="MSShapeGroup"></path>
            <path d="M76.426,93.694 C58.451,93.694 48.582,79.478 48.582,60.68 C48.582,41.883 58.451,27.784 76.426,27.784 C94.401,27.784 104.27,41.883 104.27,60.68 C104.27,79.478 94.401,93.694 76.426,93.694 L76.426,93.694 Z M76.426,38.006 C66.44,38.006 61.505,46.935 61.505,60.563 C61.505,74.191 66.44,83.238 76.426,83.238 C86.412,83.238 91.347,74.191 91.347,60.563 C91.347,46.935 86.412,38.006 76.426,38.006 L76.426,38.006 Z" id="Fill-2" sketch:type="MSShapeGroup"></path>
            <path d="M121.54,17.563 C117.311,17.563 113.904,14.273 113.904,10.279 C113.904,6.284 117.311,2.995 121.54,2.995 C125.77,2.995 129.177,6.284 129.177,10.279 C129.177,14.273 125.77,17.563 121.54,17.563 L121.54,17.563 Z M115.078,29.077 L128.001,29.077 L128.001,92.402 L115.078,92.402 L115.078,29.077 Z" id="Fill-3" sketch:type="MSShapeGroup"></path>
            <path d="M178.873,92.402 L178.873,50.107 C178.873,42.705 174.409,38.123 165.597,38.123 C160.898,38.123 156.551,38.945 153.966,40.003 L153.966,92.402 L141.16,92.402 L141.16,32.249 C147.504,29.664 155.611,27.784 165.48,27.784 C183.22,27.784 191.797,35.538 191.797,48.932 L191.797,92.402 L178.873,92.402" id="Fill-4" sketch:type="MSShapeGroup"></path>
            <path d="M225.866,93.694 C217.642,93.694 209.536,91.697 204.601,89.229 L204.601,0.175 L217.407,0.175 L217.407,30.721 C220.462,29.312 225.396,28.137 229.743,28.137 C246.074,28.137 257.117,39.885 257.117,59.27 C257.117,83.12 244.781,93.694 225.866,93.694 L225.866,93.694 Z M227.511,38.123 C223.986,38.123 219.874,38.945 217.407,40.238 L217.407,81.828 C219.287,82.65 222.929,83.473 226.571,83.473 C236.792,83.473 244.312,76.423 244.312,60.21 C244.312,46.347 237.732,38.123 227.511,38.123 L227.511,38.123 Z" id="Fill-5" sketch:type="MSShapeGroup"></path>
            <path d="M292.01,93.694 C273.8,93.694 264.636,86.292 264.636,73.839 C264.636,56.216 283.434,53.044 302.584,51.986 L302.584,47.992 C302.584,40.003 297.297,37.183 289.191,37.183 C283.199,37.183 275.915,39.063 271.685,41.06 L268.396,32.249 C273.448,30.017 282.024,27.784 290.483,27.784 C305.639,27.784 314.803,33.659 314.803,49.284 L314.803,89.229 C310.221,91.697 300.939,93.694 292.01,93.694 L292.01,93.694 Z M302.584,60.563 C289.661,61.268 276.737,62.325 276.737,73.604 C276.737,80.3 281.907,84.412 291.658,84.412 C295.77,84.412 300.587,83.708 302.584,82.768 L302.584,60.563 L302.584,60.563 Z" id="Fill-6" sketch:type="MSShapeGroup"></path>
            <path d="M343.703,93.694 C336.301,93.694 328.547,91.697 323.965,89.229 L328.312,79.361 C331.602,81.358 338.534,83.473 343.351,83.473 C350.282,83.473 354.864,80.065 354.864,74.779 C354.864,69.022 350.047,66.79 343.586,64.44 C335.126,61.268 325.61,57.391 325.61,45.525 C325.61,35.068 333.717,27.784 347.815,27.784 C355.452,27.784 361.796,29.664 366.26,32.249 L362.266,41.178 C359.446,39.415 353.807,37.418 349.225,37.418 C342.528,37.418 338.769,40.943 338.769,45.525 C338.769,51.281 343.468,53.279 349.695,55.628 C358.506,58.918 368.258,62.56 368.258,74.896 C368.258,86.292 359.564,93.694 343.703,93.694" id="Fill-7" sketch:type="MSShapeGroup"></path>
            <path d="M430.759,60.445 L388.699,66.32 C389.992,77.716 397.393,83.473 408.085,83.473 C414.429,83.473 421.243,81.945 425.59,79.596 L429.349,89.229 C424.415,91.814 415.956,93.694 407.262,93.694 C387.289,93.694 376.128,80.888 376.128,60.68 C376.128,41.295 386.937,27.784 404.677,27.784 C421.125,27.784 430.877,38.593 430.877,55.628 C430.877,57.156 430.877,58.801 430.759,60.445 L430.759,60.445 Z M404.442,37.183 C394.574,37.183 388.112,44.702 387.877,57.861 L418.541,53.631 C418.423,42.587 412.901,37.183 404.442,37.183 L404.442,37.183 Z" id="Fill-8" sketch:type="MSShapeGroup"></path>
        </g>
    </g>
</svg>